<?xml version="1.0" standalone="no"?>
<!DOCTYPE svg PUBLIC "-//W3C//DTD SVG 20010904//EN"
 "http://www.w3.org/TR/2001/REC-SVG-20010904/DTD/svg10.dtd">
<svg version="1.0" xmlns="http://www.w3.org/2000/svg"
 width="366.000000pt" height="372.000000pt" viewBox="0 0 366.000000 372.000000"
 preserveAspectRatio="xMidYMid meet">

<g transform="translate(0.000000,372.000000) scale(0.100000,-0.100000)"
fill="#000000" stroke="none">
<path d="M0 1860 l0 -1860 1830 0 1830 0 0 1860 0 1860 -1830 0 -1830 0 0
-1860z m1724 1556 c18 -7 44 -28 58 -46 l26 -33 39 41 c89 94 230 47 227 -75
-1 -39 -6 -51 -33 -75 -35 -32 -101 -40 -101 -13 0 9 9 15 24 15 33 0 76 37
76 65 0 111 -137 129 -190 25 -93 -182 146 -420 419 -420 81 0 158 27 193 66
25 29 48 89 48 126 -1 50 -34 114 -69 132 -59 31 -156 13 -181 -33 -13 -26
-13 -77 1 -103 17 -31 -5 -46 -24 -17 -28 44 -29 81 -5 128 40 77 134 104 217
61 60 -30 86 -80 86 -167 0 -63 -3 -76 -30 -115 -21 -28 -50 -53 -90 -73 l-59
-30 225 -5 c123 -3 225 -7 226 -8 1 -1 9 -9 17 -18 14 -13 16 -49 16 -235 0
-127 4 -219 9 -219 5 0 15 16 22 37 19 57 86 118 148 133 57 13 121 3 167 -26
95 -63 88 -231 -13 -279 -41 -20 -107 -15 -131 9 -24 23 -7 31 38 17 134 -40
196 163 70 231 -26 15 -50 18 -97 16 -80 -5 -128 -40 -160 -119 -87 -212 105
-552 312 -552 109 0 184 78 151 157 -20 48 -77 67 -115 39 -17 -13 -27 -31
-29 -52 -3 -24 -8 -31 -20 -29 -24 5 -26 31 -7 72 20 42 61 61 118 53 112 -15
135 -167 36 -238 l-31 -22 31 -24 c107 -84 66 -243 -63 -243 -64 0 -129 85
-96 125 16 20 30 10 30 -22 0 -39 27 -63 70 -63 48 0 82 35 82 84 0 73 -59
119 -152 120 -245 3 -445 -436 -279 -613 125 -131 342 -28 276 131 -25 60 -76
77 -154 53 -33 -10 -30 18 2 33 39 18 96 14 132 -8 104 -63 84 -236 -34 -286
-48 -21 -129 -18 -180 7 -45 22 -96 85 -109 133 -15 62 -24 30 -24 -91 0 -201
-10 -325 -28 -345 -14 -16 -39 -18 -246 -18 -133 0 -226 -4 -221 -9 6 -5 27
-14 48 -21 54 -17 122 -85 136 -135 33 -121 -27 -235 -133 -250 -116 -18 -207
78 -174 181 8 24 20 40 32 42 16 3 18 0 11 -19 -35 -112 13 -179 121 -166 127
14 166 194 61 283 -48 40 -94 56 -167 56 -186 2 -365 -100 -430 -243 -48 -108
-2 -230 93 -246 31 -5 40 -1 67 25 53 54 30 132 -40 132 -20 0 -30 5 -30 15 0
20 63 20 95 -1 30 -19 48 -72 39 -110 -12 -48 -33 -72 -80 -90 -41 -16 -47
-16 -89 0 -25 10 -56 32 -70 49 l-25 32 -25 -31 c-32 -41 -95 -67 -141 -58
-42 8 -90 53 -99 94 -8 38 10 96 38 115 29 20 97 20 97 0 0 -10 -10 -15 -30
-15 -70 0 -93 -78 -40 -132 27 -26 36 -30 67 -25 66 11 113 77 113 160 0 126
-156 276 -329 317 -116 27 -232 10 -290 -43 -32 -29 -61 -94 -61 -136 0 -51
35 -115 74 -136 82 -44 194 13 183 94 -3 20 -8 46 -12 59 -11 33 20 29 33 -5
20 -54 21 -62 11 -96 -21 -75 -122 -124 -201 -98 -40 13 -92 64 -107 104 -16
43 -13 117 8 162 22 50 77 99 128 115 21 7 42 16 48 21 5 5 -88 9 -221 9 -222
0 -232 1 -250 21 -17 19 -19 43 -24 247 l-5 226 -24 -52 c-46 -98 -109 -142
-203 -142 -109 0 -183 67 -182 165 0 61 24 109 67 135 36 22 93 26 132 8 32
-15 35 -43 3 -33 -78 25 -116 15 -148 -38 -56 -91 16 -207 128 -207 77 0 134
37 175 115 30 55 29 193 -2 279 -57 160 -197 287 -315 286 -44 -1 -111 -34
-132 -65 -43 -65 -5 -145 67 -145 42 0 69 26 69 67 0 30 17 38 30 14 12 -23
-6 -77 -33 -99 -24 -20 -83 -26 -117 -12 -47 19 -70 59 -70 121 0 49 3 55 44
95 l45 42 -25 17 c-40 26 -64 74 -64 129 0 41 5 53 34 82 29 29 41 34 79 34
70 0 130 -64 110 -117 -10 -25 -32 -13 -35 19 -2 20 -13 38 -30 51 -25 19 -30
19 -65 6 -28 -11 -41 -24 -51 -51 -13 -34 -13 -41 5 -74 41 -79 156 -101 253
-48 147 80 256 310 222 472 -14 67 -55 128 -103 154 -42 22 -129 24 -170 3
-130 -67 -58 -287 75 -231 39 16 59 5 34 -21 -23 -22 -88 -27 -131 -10 -94 40
-112 187 -31 263 103 97 286 46 335 -94 6 -18 15 -29 20 -26 5 3 9 101 9 218
0 167 3 216 14 232 13 18 31 19 243 24 l228 5 -60 30 c-82 41 -118 93 -123
178 -3 51 1 70 20 107 77 144 301 105 301 -52 0 -38 -25 -88 -44 -88 -7 0 -9
9 -4 23 33 105 -6 167 -105 167 -59 0 -98 -24 -121 -73 -47 -104 6 -217 120
-256 49 -16 169 -14 232 5 172 51 309 190 309 313 0 84 -57 161 -119 161 -78
0 -122 -94 -65 -139 15 -12 38 -21 51 -21 35 0 23 -24 -14 -28 -40 -4 -90 38
-98 82 -13 69 49 146 118 146 15 0 42 -6 61 -14z"/>
<path d="M1785 3101 c-40 -78 -196 -189 -291 -207 -96 -18 -16 -24 317 -24
200 0 359 4 354 8 -6 5 -30 14 -55 21 -102 29 -209 103 -262 181 -18 27 -36
50 -40 50 -4 0 -14 -13 -23 -29z"/>
<path d="M819 2824 c-18 -22 -28 -1956 -9 -1979 11 -13 131 -15 1000 -15 874
0 989 2 1000 15 17 20 4 1962 -12 1983 -8 9 -218 12 -988 12 -876 0 -979 -2
-991 -16z m605 -729 c8 -8 17 -24 21 -34 7 -22 67 -66 110 -81 17 -5 92 -19
167 -29 151 -22 216 -47 262 -102 41 -48 54 -81 67 -161 7 -40 17 -76 23 -80
6 -4 34 -8 61 -8 69 0 97 -9 93 -29 -3 -14 -16 -15 -90 -12 l-86 3 -35 -73
c-59 -128 -168 -253 -262 -302 -116 -60 -240 5 -239 126 1 96 61 173 179 229
70 32 177 58 247 58 60 0 79 18 71 68 -9 60 -48 137 -84 165 -46 35 -116 54
-234 67 -123 13 -167 24 -223 56 -69 41 -125 133 -89 147 20 9 25 8 41 -8z"/>
<path d="M1885 1553 c-57 -8 -149 -35 -189 -55 -138 -69 -189 -210 -102 -280
24 -20 90 -24 132 -8 80 31 246 230 269 323 7 26 6 27 -36 26 -24 -1 -57 -4
-74 -6z"/>
<path d="M2840 1829 c0 -344 6 -422 25 -322 18 99 107 236 187 289 24 16 46
32 48 35 3 4 -19 25 -49 47 -90 68 -167 188 -188 294 -17 84 -23 -10 -23 -343z"/>
<path d="M741 2124 c-35 -108 -110 -204 -212 -275 l-23 -16 31 -17 c47 -24
127 -107 161 -168 16 -29 39 -83 52 -120 12 -38 24 -68 26 -68 2 0 4 164 4
365 0 201 -4 365 -9 365 -4 0 -18 -30 -30 -66z"/>
<path d="M1426 802 c5 -4 32 -14 59 -21 118 -29 231 -104 288 -191 17 -27 34
-50 37 -50 3 0 14 16 25 36 44 82 182 177 300 206 28 6 54 16 59 20 6 4 -167
8 -384 8 -217 0 -390 -4 -384 -8z"/>
</g>
</svg>
